<svg xmlns="http://www.w3.org/2000/svg" xmlns:xlink="http://www.w3.org/1999/xlink" width="163" zoomAndPan="magnify" viewBox="0 0 122.25 30.000001" height="40" preserveAspectRatio="xMidYMid meet" version="1.0"><defs><g/><clipPath id="d381119883"><path d="M 6.351562 2.902344 L 42.640625 2.902344 L 42.640625 26.128906 L 6.351562 26.128906 Z M 6.351562 2.902344 " clip-rule="nonzero"/></clipPath></defs><g fill="#3b82f6" fill-opacity="1"><g transform="translate(45.103376, 19.233873)"><g><path d="M 7.53125 -1.875 L 3.578125 -1.875 L 2.9375 0 L 0.234375 0 L 4.078125 -10.59375 L 7.0625 -10.59375 L 10.890625 0 L 8.171875 0 Z M 6.875 -3.859375 L 5.546875 -7.75 L 4.25 -3.859375 Z M 6.875 -3.859375 "/></g></g></g><g fill="#3b82f6" fill-opacity="1"><g transform="translate(56.227975, 19.233873)"><g><path d="M 3.515625 -11.171875 L 3.515625 0 L 0.9375 0 L 0.9375 -11.171875 Z M 3.515625 -11.171875 "/></g></g></g><g fill="#3b82f6" fill-opacity="1"><g transform="translate(60.680838, 19.233873)"><g><path d="M 5.625 -2.1875 L 5.625 0 L 4.3125 0 C 3.375 0 2.644531 -0.226562 2.125 -0.6875 C 1.601562 -1.144531 1.34375 -1.890625 1.34375 -2.921875 L 1.34375 -6.28125 L 0.3125 -6.28125 L 0.3125 -8.421875 L 1.34375 -8.421875 L 1.34375 -10.46875 L 3.921875 -10.46875 L 3.921875 -8.421875 L 5.609375 -8.421875 L 5.609375 -6.28125 L 3.921875 -6.28125 L 3.921875 -2.890625 C 3.921875 -2.640625 3.976562 -2.457031 4.09375 -2.34375 C 4.21875 -2.238281 4.421875 -2.1875 4.703125 -2.1875 Z M 5.625 -2.1875 "/></g></g></g><g fill="#3b82f6" fill-opacity="1"><g transform="translate(66.809182, 19.233873)"><g><path d="M 0.421875 -4.21875 C 0.421875 -5.09375 0.582031 -5.851562 0.90625 -6.5 C 1.238281 -7.15625 1.6875 -7.660156 2.25 -8.015625 C 2.8125 -8.367188 3.441406 -8.546875 4.140625 -8.546875 C 4.734375 -8.546875 5.253906 -8.421875 5.703125 -8.171875 C 6.148438 -7.929688 6.492188 -7.617188 6.734375 -7.234375 L 6.734375 -8.421875 L 9.3125 -8.421875 L 9.3125 0 L 6.734375 0 L 6.734375 -1.1875 C 6.484375 -0.800781 6.132812 -0.484375 5.6875 -0.234375 C 5.238281 0.00390625 4.71875 0.125 4.125 0.125 C 3.4375 0.125 2.8125 -0.0507812 2.25 -0.40625 C 1.6875 -0.769531 1.238281 -1.28125 0.90625 -1.9375 C 0.582031 -2.59375 0.421875 -3.351562 0.421875 -4.21875 Z M 6.734375 -4.21875 C 6.734375 -4.851562 6.550781 -5.359375 6.1875 -5.734375 C 5.832031 -6.109375 5.398438 -6.296875 4.890625 -6.296875 C 4.378906 -6.296875 3.941406 -6.109375 3.578125 -5.734375 C 3.222656 -5.367188 3.046875 -4.863281 3.046875 -4.21875 C 3.046875 -3.582031 3.222656 -3.070312 3.578125 -2.6875 C 3.941406 -2.3125 4.378906 -2.125 4.890625 -2.125 C 5.398438 -2.125 5.832031 -2.3125 6.1875 -2.6875 C 6.550781 -3.0625 6.734375 -3.570312 6.734375 -4.21875 Z M 6.734375 -4.21875 "/></g></g></g><g fill="#3b82f6" fill-opacity="1"><g transform="translate(77.058308, 19.233873)"><g><path d="M 3.515625 -7.015625 C 3.816406 -7.484375 4.191406 -7.847656 4.640625 -8.109375 C 5.097656 -8.378906 5.601562 -8.515625 6.15625 -8.515625 L 6.15625 -5.78125 L 5.453125 -5.78125 C 4.804688 -5.78125 4.320312 -5.640625 4 -5.359375 C 3.675781 -5.085938 3.515625 -4.601562 3.515625 -3.90625 L 3.515625 0 L 0.9375 0 L 0.9375 -8.421875 L 3.515625 -8.421875 Z M 3.515625 -7.015625 "/></g></g></g><g fill="#3b82f6" fill-opacity="1"><g transform="translate(83.518723, 19.233873)"><g><path d="M 5.15625 -6.28125 L 3.78125 -6.28125 L 3.78125 0 L 1.1875 0 L 1.1875 -6.28125 L 0.25 -6.28125 L 0.25 -8.421875 L 1.1875 -8.421875 L 1.1875 -8.65625 C 1.1875 -9.695312 1.484375 -10.484375 2.078125 -11.015625 C 2.671875 -11.554688 3.539062 -11.828125 4.6875 -11.828125 C 4.882812 -11.828125 5.023438 -11.820312 5.109375 -11.8125 L 5.109375 -9.625 C 4.617188 -9.65625 4.273438 -9.582031 4.078125 -9.40625 C 3.878906 -9.238281 3.78125 -8.9375 3.78125 -8.5 L 3.78125 -8.421875 L 5.15625 -8.421875 Z M 5.15625 -6.28125 "/></g></g></g><g fill="#3b82f6" fill-opacity="1"><g transform="translate(88.952724, 19.233873)"><g><path d="M 3.515625 -11.171875 L 3.515625 0 L 0.9375 0 L 0.9375 -11.171875 Z M 3.515625 -11.171875 "/></g></g></g><g fill="#3b82f6" fill-opacity="1"><g transform="translate(93.405587, 19.233873)"><g><path d="M 4.765625 0.125 C 3.941406 0.125 3.195312 -0.0507812 2.53125 -0.40625 C 1.875 -0.757812 1.359375 -1.257812 0.984375 -1.90625 C 0.609375 -2.5625 0.421875 -3.332031 0.421875 -4.21875 C 0.421875 -5.082031 0.609375 -5.84375 0.984375 -6.5 C 1.367188 -7.15625 1.894531 -7.660156 2.5625 -8.015625 C 3.226562 -8.367188 3.972656 -8.546875 4.796875 -8.546875 C 5.617188 -8.546875 6.363281 -8.367188 7.03125 -8.015625 C 7.695312 -7.660156 8.21875 -7.15625 8.59375 -6.5 C 8.976562 -5.84375 9.171875 -5.082031 9.171875 -4.21875 C 9.171875 -3.34375 8.976562 -2.578125 8.59375 -1.921875 C 8.207031 -1.265625 7.675781 -0.757812 7 -0.40625 C 6.332031 -0.0507812 5.585938 0.125 4.765625 0.125 Z M 4.765625 -2.109375 C 5.265625 -2.109375 5.6875 -2.289062 6.03125 -2.65625 C 6.375 -3.019531 6.546875 -3.539062 6.546875 -4.21875 C 6.546875 -4.882812 6.378906 -5.398438 6.046875 -5.765625 C 5.710938 -6.128906 5.296875 -6.3125 4.796875 -6.3125 C 4.296875 -6.3125 3.878906 -6.128906 3.546875 -5.765625 C 3.210938 -5.410156 3.046875 -4.894531 3.046875 -4.21875 C 3.046875 -3.539062 3.207031 -3.019531 3.53125 -2.65625 C 3.863281 -2.289062 4.273438 -2.109375 4.765625 -2.109375 Z M 4.765625 -2.109375 "/></g></g></g><g fill="#3b82f6" fill-opacity="1"><g transform="translate(103.020739, 19.233873)"><g><path d="M 13.03125 -8.421875 L 10.75 0 L 7.890625 0 L 6.5625 -5.46875 L 5.1875 0 L 2.359375 0 L 0.0625 -8.421875 L 2.640625 -8.421875 L 3.828125 -2.40625 L 5.25 -8.421875 L 7.984375 -8.421875 L 9.421875 -2.4375 L 10.59375 -8.421875 Z M 13.03125 -8.421875 "/></g></g></g><g clip-path="url(#d381119883)"><path fill="#3b82f6" d="M 34.648438 26.101562 L 13.121094 26.101562 C 9.394531 26.101562 6.363281 23.015625 6.363281 19.222656 C 6.363281 16.1875 8.300781 13.546875 11.128906 12.664062 C 12.011719 7.085938 16.765625 2.933594 22.347656 2.933594 C 26.609375 2.933594 30.527344 5.398438 32.464844 9.257812 C 33.105469 9.105469 33.757812 9.03125 34.410156 9.03125 C 39.117188 9.03125 42.945312 12.859375 42.945312 17.566406 C 42.945312 22.109375 39.390625 25.847656 34.851562 26.082031 C 34.789062 26.09375 34.722656 26.101562 34.648438 26.101562 Z M 22.347656 4.152344 C 17.246094 4.152344 12.917969 8.050781 12.285156 13.214844 C 12.253906 13.46875 12.070312 13.671875 11.824219 13.734375 C 9.328125 14.347656 7.582031 16.605469 7.582031 19.222656 C 7.582031 22.34375 10.066406 24.882812 13.121094 24.882812 L 34.648438 24.882812 C 34.660156 24.882812 34.777344 24.863281 34.789062 24.863281 C 38.679688 24.664062 41.726562 21.457031 41.726562 17.566406 C 41.726562 13.53125 38.445312 10.25 34.410156 10.25 C 33.703125 10.25 32.992188 10.355469 32.304688 10.5625 C 32.015625 10.652344 31.699219 10.503906 31.574219 10.226562 C 29.921875 6.535156 26.300781 4.152344 22.347656 4.152344 Z M 22.347656 4.152344 " fill-opacity="1" fill-rule="nonzero"/></g></svg>