<svg width="2672" height="508" viewBox="0 0 2672 508" fill="none" xmlns="http://www.w3.org/2000/svg">
<path fill-rule="evenodd" clip-rule="evenodd" d="M291 1c-22-2-47 8-63 21-12 10-23 23-28 34l-2 3-5-1c-8-3-22-3-30-1-18 4-36 17-45 33-7 12-11 29-10 43 1 7 0 8-1 7-1 0-7-1-13-1-13-1-23 1-36 7-24 10-46 34-53 61-17 57 13 116 70 131 9 2 12 2 43 3 19 0 101 0 183 0l148-1 10-3c30-8 56-29 68-56 19-38 13-80-15-112-7-9-18-17-29-23-21-10-40-11-61-3-14 5-25 13-34 24-8 10-13 19-16 32l-1 6-14 0-13 1 0-7c2-15 6-29 15-42 13-20 31-33 53-40l9-3-1-7c-1-18-9-39-19-54-8-12-25-30-37-37-10-6-24-13-35-16-7-2-28-4-31-4-1 0-5 0-10 1zm-45 484c-20 2-36 7-37 10-1 2 1 5 6 7 18 8 95 7 111-1 16-8-9-16-52-17-11 0-24 0-28 1z" fill="white"/>
<path d="M848 100l-92 281h-82l126-364h99l125 364h-82l-91-281h-3zm-96 198v-60h195v60H752zm285-281h76v364h-76V17zm87 91h164v57h-164v-57zm37 199V43h76v254c0 7 1 12 3 16 2 4 5 7 9 8 4 2 8 3 13 3 4 0 7 0 11-1 4-1 6-1 8-2l12 56c-4 2-9 3-16 5-7 2-15 3-25 3-18 1-34-1-48-7-13-5-24-14-32-26-7-11-11-26-11-44zm224 79c-17 0-33-3-47-9-13-6-24-15-32-28-8-12-12-27-12-45 0-15 3-28 8-38 6-10 13-18 23-25 9-6 20-11 32-14 13-3 25-6 39-7 16-2 29-3 38-5 10-1 17-4 21-7 4-2 7-7 7-13v-1c0-11-4-20-11-26-7-6-17-9-30-9-14 0-25 3-33 9-8 6-13 13-16 22l-70-6c4-16 11-31 21-43 11-12 24-21 41-28 16-6 35-10 57-10 15 0 30 2 44 6 14 3 26 9 37 16 11 8 20 17 26 29 6 11 10 25 10 42v184h-72v-38h-2c-4 9-10 16-17 23-8 6-16 11-27 15-10 3-22 5-36 5zm22-52c11 0 21-2 29-7 9-4 16-10 20-18 5-7 7-16 7-26v-29c-2 2-5 3-9 4-4 2-9 3-14 4-5 1-10 2-15 3-5 1-9 1-13 2-9 1-17 3-23 6-7 3-12 7-16 12-3 4-5 11-5 18 0 10 4 18 11 23 8 6 18 8 29 8zm236 47h-76V108h74v47h2c5-17 14-29 25-38 12-9 25-13 41-13 3 0 7 0 11 1 5 0 8 1 12 2v66c-4-1-9-2-15-3-7-1-12-1-18-1-11 0-20 2-29 7-9 5-15 11-21 20-5 8-8 18-8 29v154zm77-273h169v57h-169v-57zm114 273h-76V88c0-20 4-36 12-49 7-13 18-23 32-29 13-7 29-10 46-10 12 0 22 1 32 3 9 2 16 4 21 5l-14 56c-2-1-6-2-10-3-4-1-9-1-13-1-11 0-19 3-23 8-5 5-7 12-7 22v291zm71-364h76v364h-76V17zm229 369c-28 0-51-6-72-18-20-12-35-28-46-49-11-21-16-46-16-74 0-28 5-52 16-73 11-21 26-38 46-49 20-12 44-18 72-18 27 0 51 6 71 18 20 12 36 28 47 49 10 21 16 46 16 74 0 28-6 52-17 73-10 21-26 38-46 49-20 12-44 18-71 18zm0-58c13 0 23-4 32-11 8-7 14-17 19-30 4-12 6-26 6-42 0-16-2-30-6-42-4-13-10-22-19-29-8-7-19-11-32-11-12 0-23 4-31 11-9 7-15 17-19 29-5 13-7 27-7 43 0 15 2 29 7 41 4 13 10 23 19 30 8 7 19 11 31 11zm287 53h-80l-74-273h76l43 183h2l44-183h75l45 182h2l42-182h76l-74 273h-80l-47-171h-3l-47 171z" fill="white"/>
</svg>
